<?xml version="1.0" encoding="iso-8859-1"?>
<!-- Generator: Adobe Illustrator 19.0.0, SVG Export Plug-In . SVG Version: 6.00 Build 0)  -->
<svg version="1.1" id="Capa_1" xmlns="http://www.w3.org/2000/svg" xmlns:xlink="http://www.w3.org/1999/xlink" x="0px" y="0px"
	 viewBox="0 0 512 512" style="enable-background:new 0 0 512 512;" xml:space="preserve">
<path style="fill:#FF598B;" d="M497,128.533H15c-8.284,0-15,6.716-15,15V497c0,8.284,6.716,15,15,15h482c8.284,0,15-6.716,15-15
	V143.533C512,135.249,505.284,128.533,497,128.533z"/>
<path style="fill:#E6293F;" d="M497,128.533H256.001V512H497c8.284,0,15-6.716,15-15V143.533
	C512,135.249,505.284,128.533,497,128.533z"/>
<path style="fill:#C7EFFF;" d="M340.637,307.787l-120.5-80.334c-4.602-3.069-10.521-3.354-15.398-0.745
	c-4.877,2.61-7.922,7.693-7.922,13.226v160.667c0,5.532,3.045,10.615,7.922,13.226c2.218,1.186,4.65,1.774,7.077,1.774
	c2.91,0,5.812-0.846,8.321-2.52l120.5-80.333c4.173-2.781,6.68-7.465,6.68-12.48S344.81,310.569,340.637,307.787z"/>
<g>
	<path style="fill:#FF598B;" d="M63.201,94.268h385.6c8.284,0,15-6.716,15-15s-6.716-15-15-15h-385.6c-8.284,0-15,6.716-15,15
		S54.917,94.268,63.201,94.268z"/>
	<path style="fill:#FF598B;" d="M111.4,30h289.2c8.284,0,15-6.716,15-15s-6.716-15-15-15H111.4c-8.284,0-15,6.716-15,15
		S103.116,30,111.4,30z"/>
</g>
<path style="fill:#91E1FF;" d="M340.637,307.787l-84.636-56.425v137.81l84.636-56.424c4.173-2.781,6.68-7.465,6.68-12.48
	S344.81,310.569,340.637,307.787z"/>
<g>
	<path style="fill:#E6293F;" d="M463.801,79.268c0-8.284-6.716-15-15-15h-192.8v30h192.8
		C457.085,94.268,463.801,87.552,463.801,79.268z"/>
	<path style="fill:#E6293F;" d="M415.6,15c0-8.284-6.716-15-15-15H256.001v30H400.6C408.884,30,415.6,23.284,415.6,15z"/>
</g>
<g>
</g>
<g>
</g>
<g>
</g>
<g>
</g>
<g>
</g>
<g>
</g>
<g>
</g>
<g>
</g>
<g>
</g>
<g>
</g>
<g>
</g>
<g>
</g>
<g>
</g>
<g>
</g>
<g>
</g>
</svg>
