<svg id="_x31_px" enable-background="new 0 0 24 24" height="512" viewBox="0 0 24 24" width="512" xmlns="http://www.w3.org/2000/svg"><path d="m17.5 8.5c-.072 0-.145-.016-.212-.047-.176-.083-.288-.259-.288-.453v-5c0-.194.112-.37.288-.453.175-.082.382-.056.532.069l3 2.5c.114.095.18.236.18.384s-.066.289-.18.384l-3 2.5c-.091.077-.205.116-.32.116zm.5-4.433v2.865l1.719-1.432z"/><path d="m22.5 11h-7c-.827 0-1.5-.673-1.5-1.5v-8c0-.827.673-1.5 1.5-1.5h7c.827 0 1.5.673 1.5 1.5v8c0 .827-.673 1.5-1.5 1.5zm-7-10c-.276 0-.5.225-.5.5v8c0 .275.224.5.5.5h7c.276 0 .5-.225.5-.5v-8c0-.275-.224-.5-.5-.5z"/><path d="m5.5 24h-4c-.827 0-1.5-.673-1.5-1.5v-15c0-.827.673-1.5 1.5-1.5h4c.827 0 1.5.673 1.5 1.5v15c0 .827-.673 1.5-1.5 1.5zm-4-17c-.276 0-.5.225-.5.5v15c0 .275.224.5.5.5h4c.276 0 .5-.225.5-.5v-15c0-.275-.224-.5-.5-.5z"/><path d="m11.5 24h-4c-.827 0-1.5-.673-1.5-1.5v-21c0-.827.673-1.5 1.5-1.5h4c.276 0 .5.224.5.5s-.224.5-.5.5h-4c-.276 0-.5.225-.5.5v21c0 .275.224.5.5.5h4c.276 0 .5-.225.5-.5v-10c0-.276.224-.5.5-.5s.5.224.5.5v10c0 .827-.673 1.5-1.5 1.5z"/><path d="m17.5 24h-4c-.827 0-1.5-.673-1.5-1.5v-7c0-.276.224-.5.5-.5s.5.224.5.5v7c0 .275.224.5.5.5h4c.276 0 .5-.225.5-.5v-9c0-.276.224-.5.5-.5s.5.224.5.5v9c0 .827-.673 1.5-1.5 1.5z"/><path d="m6.5 20h-6c-.276 0-.5-.224-.5-.5s.224-.5.5-.5h6c.276 0 .5.224.5.5s-.224.5-.5.5z"/><path d="m6.5 17h-6c-.276 0-.5-.224-.5-.5s.224-.5.5-.5h6c.276 0 .5.224.5.5s-.224.5-.5.5z"/><path d="m18.5 17h-6c-.276 0-.5-.224-.5-.5s.224-.5.5-.5h6c.276 0 .5.224.5.5s-.224.5-.5.5z"/><path d="m9.5 20c-.276 0-.5-.224-.5-.5v-16c0-.276.224-.5.5-.5s.5.224.5.5v16c0 .276-.224.5-.5.5z"/><path d="m18.5 20h-6c-.276 0-.5-.224-.5-.5s.224-.5.5-.5h6c.276 0 .5.224.5.5s-.224.5-.5.5z"/></svg>