<svg id="color" enable-background="new 0 0 24 24" height="512" viewBox="0 0 24 24" width="512" xmlns="http://www.w3.org/2000/svg"><path d="m4.25 6h-2.5c-.96 0-1.75.79-1.75 1.75v14.5c0 .96.79 1.75 1.75 1.75h2.5c.96 0 1.75-.79 1.75-1.75v-14.5c0-.96-.79-1.75-1.75-1.75z" fill="#90a4ae"/><path d="m16.25 6h-2.5c-.96 0-1.75.79-1.75 1.75v14.5c0 .96.79 1.75 1.75 1.75h2.5c.96 0 1.75-.79 1.75-1.75v-14.5c0-.96-.79-1.75-1.75-1.75z" fill="#cfd8dc"/><path d="m10.25 0h-2.5c-.96 0-1.75.79-1.75 1.75v20.5c0 .96.79 1.75 1.75 1.75h2.5c.96 0 1.75-.79 1.75-1.75v-20.5c0-.96-.79-1.75-1.75-1.75z" fill="#b0bec5"/><path d="m0 19h6v2h-6z" fill="#607d8b"/><path d="m9 21c-.552 0-1-.448-1-1v-17c0-.552.448-1 1-1s1 .448 1 1v17c0 .552-.448 1-1 1z" fill="#90a4ae"/><path d="m12 19h6v2h-6z" fill="#b0bec5"/><path d="m15 6h-1.25c-.96 0-1.75.79-1.75 1.75v14.5c0 .96.79 1.75 1.75 1.75h1.25v-3h-3v-2h3z" fill="#b4bcc0"/><path d="m3 6h-1.25c-.96 0-1.75.79-1.75 1.75v14.5c0 .96.79 1.75 1.75 1.75h1.25v-3h-3v-2h3z" fill="#7d8f97"/><path d="m3 19h-3v2h3z" fill="#546d79"/><path d="m9 0h-1.25c-.96 0-1.75.79-1.75 1.75v20.5c0 .96.79 1.75 1.75 1.75h1.25v-3c-.553 0-1-.447-1-1v-17c0-.553.447-1 1-1z" fill="#99a5ac"/><path d="m9 2c-.553 0-1 .447-1 1v17c0 .553.447 1 1 1z" fill="#7d8f97"/><path d="m15 19h-3v2h3z" fill="#99a5ac"/><path d="m22.25 11h-6.5c-.965 0-1.75-.785-1.75-1.75v-7.5c0-.965.785-1.75 1.75-1.75h6.5c.965 0 1.75.785 1.75 1.75v7.5c0 .965-.785 1.75-1.75 1.75z" fill="#f44336"/><path d="m17 7.25v-3.5c0-.603.682-.963 1.18-.614l2.5 1.75c.426.298.426.93 0 1.229l-2.5 1.75c-.495.345-1.18-.009-1.18-.615z" fill="#fff"/><path d="m24 5.5h-3c0 .233-.106.465-.319.614l-2.5 1.75c-.135.094-.283.136-.427.136-.389 0-.754-.308-.754-.75v-1.75h-3v3.75c0 .965.785 1.75 1.75 1.75h6.5c.965 0 1.75-.785 1.75-1.75z" opacity=".13"/><path d="m21 5.5h-4v1.75c0 .442.365.75.754.75.144 0 .292-.042.426-.136l2.5-1.75c.213-.149.32-.381.32-.614z" opacity=".13"/></svg>